<svg width="153" height="91" viewBox="0 0 153 91" fill="none" xmlns="http://www.w3.org/2000/svg">
<path d="M2 50.5V41H17V21H31V24H35V21H49V41H62" stroke="black"/>
<path d="M25 28H23V30H25V28Z" stroke="black"/>
<path d="M43 28H41V30H43V28Z" stroke="black"/>
<path d="M2 50H17V57H49V50H62" stroke="black"/>
<path d="M33 51C37.8 51 39 55 39 57H27C27 55 28.2 51 33 51Z" stroke="black"/>
<path d="M17 57H11V73H62V50" stroke="black"/>
<path d="M62 50H77" stroke="black"/>
<path d="M82 50H92V47" stroke="black"/>
<path d="M92 50V73H61" stroke="black"/>
<path d="M92 41V34H114V73H92" stroke="black"/>
<path d="M62 41H83V34" stroke="black"/>
<path d="M83 28V1H49V21" stroke="black"/>
<path d="M92 34V10H114" stroke="black"/>
<path d="M120.5 10H141V49H114" stroke="black"/>
<path d="M83 1H150V58V88H114V58H141V56" stroke="black"/>
<path d="M141 49V50" stroke="black"/>
<path d="M142 49H141" stroke="black"/>
<path d="M150 49H148" stroke="black"/>
<path d="M114 34H122V30" stroke="black"/>
<path d="M122 24V10" stroke="black"/>
<path d="M142 58H140.5" stroke="black"/>
<path d="M150 58H148" stroke="black"/>
<path d="M34 45.5C34 44.3 33 44 32.5 44C32 44 31 44.3 31 45.5C31 46.7 32 47 32.5 47C33 47 34 46.7 34 45.5Z" stroke="#0B687B"/>
<path d="M34 45.5H87.5V31H83H82" stroke="#0B687B"/>
<path d="M80 40V4M80 1.5V4M80 4H52M49.5 4H52M52 4V9M52 40.5V38M52 38H75M52 38V9M82.5 38H75M75 38V33M75 6.5V9M75 9H57M75 9V33M52 9H57M57 9V33M57 33V35.314V35.5V33ZM57 33H62M75 33H62M62 33V28M62 11.5V14M62 14V28M62 14H66M72.5 14H70M70 14V28M70 14H66M70 30.5V28M70 28H66M62 28H66M66 28V14" stroke="#0B687B" stroke-width="5"/>
</svg>
