<svg width="153" height="91" viewBox="0 0 153 91" fill="none" xmlns="http://www.w3.org/2000/svg">
<path d="M2 50.5V41H17V21H31V24H35V21H49V41H62" stroke="black"/>
<path d="M25 28H23V30H25V28Z" stroke="black"/>
<path d="M43 28H41V30H43V28Z" stroke="black"/>
<path d="M2 50H17V57H49V50H62" stroke="black"/>
<path d="M33 51C37.8 51 39 55 39 57H27C27 55 28.2 51 33 51Z" stroke="black"/>
<path d="M17 57H11V73H62V50" stroke="black"/>
<path d="M62 50H77" stroke="black"/>
<path d="M82 50H92V47" stroke="black"/>
<path d="M92 50V73H61" stroke="black"/>
<path d="M92 41V34H114V73H92" stroke="black"/>
<path d="M62 41H83V34" stroke="black"/>
<path d="M83 28V1H49V21" stroke="black"/>
<path d="M92 34V10H114" stroke="black"/>
<path d="M120.5 10H141V49H114" stroke="black"/>
<path d="M83 1H150V58V88H114V58H141V56" stroke="black"/>
<path d="M141 49V50" stroke="black"/>
<path d="M142 49H141" stroke="black"/>
<path d="M150 49H148" stroke="black"/>
<path d="M114 34H122V30" stroke="black"/>
<path d="M122 24V10" stroke="black"/>
<path d="M142 58H140.5" stroke="black"/>
<path d="M150 58H148" stroke="black"/>
<path d="M34 45.5C34 44.3 33 44 32.5 44C32 44 31 44.3 31 45.5C31 46.7 32 47 32.5 47C33 47 34 46.7 34 45.5Z" stroke="#7338AC"/>
<path d="M34 45.5H87.5V5.5H117.5V10.5" stroke="#7338AC"/>
<path d="M92.5 13H119M121.5 13H119M119 13V18M119 33.5V31M119 31H95M119 31V27.5M92.5 31H95M95 31V26M95 10.5V18M95 18H119M95 18V22M119 18V22M119 26H95M119 26V22M119 26V26.5M95 26V22M95 22H119M119 27.5H125.5V26.5H125M119 27.5V26.5M119 26.5H125M125 26.5V13M125 10.5V13M114.5 37H117M117 37H125V13M117 37V41.5M117 48.5V46M117 46H138M117 46V41.5M140.5 46H138M138 46V13M138 10.5V13M138 13H134M125 13H130M130 13V41.5M130 13H134M130 41.5H117M130 41.5H134V13" stroke="#7338AC" stroke-width="5"/>
</svg>
